<?xml version="1.0" standalone="no"?>
<!DOCTYPE svg PUBLIC "-//W3C//DTD SVG 20010904//EN"
 "http://www.w3.org/TR/2001/REC-SVG-20010904/DTD/svg10.dtd">
<svg version="1.0" xmlns="http://www.w3.org/2000/svg"
 width="512.000000pt" height="512.000000pt" viewBox="0 0 512.000000 512.000000"
 preserveAspectRatio="xMidYMid meet">
<metadata>
Created by potrace 1.12, written by Peter Selinger 2001-2015
</metadata>
<g transform="translate(0.000000,512.000000) scale(0.100000,-0.100000)"
fill="#000000" stroke="none">
<path d="M727 4974 c-263 -47 -470 -239 -539 -498 -17 -66 -18 -159 -18 -1891
0 -1780 0 -1824 20 -1899 31 -121 82 -208 180 -306 68 -69 102 -94 170 -127
159 -78 24 -73 2043 -73 1763 0 1806 0 1881 20 122 31 209 82 306 180 97 96
145 178 179 300 21 75 21 84 21 1898 0 2021 5 1885 -66 2028 -86 175 -240 301
-439 361 -57 17 -160 18 -1860 20 -1511 1 -1813 -1 -1878 -13z"/>
</g>
</svg>
